<?xml version="1.0" encoding="UTF-8" standalone="no"?> <svg xmlns="http://www.w3.org/2000/svg" viewBox="0 0 48 48"><g id="Clock"><path d="M24,2A22,22,0,1,0,46,24,22.025,22.025,0,0,0,24,2Zm0,42A20,20,0,1,1,44,24,20.023,20.023,0,0,1,24,44Z"/><path d="M24,6A18,18,0,1,0,42,24,18.021,18.021,0,0,0,24,6ZM35.982,34.568l-.669-.669A1,1,0,0,0,33.9,35.313l.669.669A15.915,15.915,0,0,1,25,39.949V38a1,1,0,0,0-2,0v1.949a15.915,15.915,0,0,1-9.568-3.967l.669-.669A1,1,0,0,0,12.687,33.9l-.669.669A15.915,15.915,0,0,1,8.051,25H10a1,1,0,0,0,0-2H8.051a15.915,15.915,0,0,1,3.967-9.568l.669.669A1,1,0,0,0,14.1,12.687l-.669-.669A15.915,15.915,0,0,1,23,8.051V10a1,1,0,0,0,2,0V8.051a15.915,15.915,0,0,1,9.568,3.967l-.669.669A1,1,0,1,0,35.313,14.1l.669-.669A15.915,15.915,0,0,1,39.949,23H38a1,1,0,0,0,0,2h1.949A15.915,15.915,0,0,1,35.982,34.568Z"/><path d="M26.7,25.285A2.951,2.951,0,0,0,27,24a3,3,0,0,0-2-2.816V14a1,1,0,0,0-2,0v7.184A2.993,2.993,0,0,0,24,27a2.951,2.951,0,0,0,1.285-.3l3.008,3.008a1,1,0,0,0,1.414-1.414ZM23,24a1,1,0,1,1,1,1A1,1,0,0,1,23,24Z"/></g></svg>